<?xml version="1.0" encoding="UTF-8" standalone="no"?> <!-- Created with Vectornator for iOS (http://vectornator.io/) --><!DOCTYPE svg PUBLIC "-//W3C//DTD SVG 1.1//EN" "http://www.w3.org/Graphics/SVG/1.1/DTD/svg11.dtd">
<svg style="fill-rule:evenodd;clip-rule:evenodd;stroke-linecap:round;stroke-linejoin:round;" xmlns:vectornator="http://vectornator.io" xmlns:xlink="http://www.w3.org/1999/xlink" xmlns="http://www.w3.org/2000/svg" xml:space="preserve" version="1.1" viewBox="0 0 69.8865 61.5464">
<metadata>
<vectornator:setting key="DimensionsVisible" value="0"/>
<vectornator:setting key="PencilOnly" value="0"/>
<vectornator:setting key="SnapToPoints" value="0"/>
<vectornator:setting key="OutlineMode" value="0"/>
<vectornator:setting key="CMYKEnabledKey" value="0"/>
<vectornator:setting key="RulersVisible" value="1"/>
<vectornator:setting key="SnapToEdges" value="0"/>
<vectornator:setting key="GuidesVisible" value="0"/>
<vectornator:setting key="DisplayWhiteBackground" value="0"/>
<vectornator:setting key="doHistoryDisabled" value="0"/>
<vectornator:setting key="SnapToGuides" value="1"/>
<vectornator:setting key="TimeLapseWatermarkDisabled" value="0"/>
<vectornator:setting key="Units" value="Points"/>
<vectornator:setting key="DynamicGuides" value="1"/>
<vectornator:setting key="IsolateActiveLayer" value="0"/>
<vectornator:setting key="SnapToGrid" value="0"/>
</metadata>
<defs/>
<g id="Untitled" vectornator:layerName="Untitled">
<path d="M40.8334+15.9167C50.8334+15.9167+57.0417+22.625+57.0417+31.125C57.0417+35.25+53.7501+44.5417+31.5001+55.1667C30.3334+55.7083+28.4584+57+23.8334+57L13.0834+57C13.0834+52.5833+17.0001+52.7083+25.5834+52.5417C25.6251+40.7917+27.9584+33.7917+35.7084+26.2917L39.0001+26.625C27.2501+32.0417+23.5001+39.0833+23.5001+48.2917L11.2084+39.0417L19.8334+29.5C22.4167+26+28.6251+15.9167+40.8334+15.9167ZM50.7501+50.625C53.0001+50.7083+54.7501+52+54.7501+54.9167C54.7501+54.9167+46.1667+55+40.0834+53.1667L46.2501+49.875C47.7084+50.375+49.2084+50.5833+50.7501+50.625ZM16.6251+27.875L12.5834+26.2917C15.0834+15.75+20.3751+7.875+28.1251+3.20833C28.1251+10.9167+24.2084+19.2917+16.6251+27.875ZM10.6251+3.20833C14.0001+9.75+14.0001+17.375+10.6251+23.4583C7.33337+17.375+7.33337+9.75+10.6251+3.20833ZM22.9584+32.4167L11.2084+39.0833C7.25007+39.0833+2.66667+38.5833+2.66667+35.5C2.66667+30.5417+10.0417+24.5417+15.4167+26.2917L22.9584+32.4167ZM65.1667+32.2083C65.1667+40.7083+52.0834+40.7083+52.0834+32.2083C52.0834+24.0417+65.1667+24.0417+65.1667+32.2083Z" fill-rule="evenodd" fill="#000000" opacity="1"/>
</g>
</svg>
