<?xml version="1.0" encoding="UTF-8" standalone="no"?> <!-- Created with Vectornator for iOS (http://vectornator.io/) --><!DOCTYPE svg PUBLIC "-//W3C//DTD SVG 1.1//EN" "http://www.w3.org/Graphics/SVG/1.1/DTD/svg11.dtd">
<svg style="fill-rule:evenodd;clip-rule:evenodd;stroke-linecap:round;stroke-linejoin:round;" xmlns:vectornator="http://vectornator.io" xmlns:xlink="http://www.w3.org/1999/xlink" xmlns="http://www.w3.org/2000/svg" xml:space="preserve" version="1.1" viewBox="0 0 120.609 94.6045">
<metadata>
<vectornator:setting key="DimensionsVisible" value="0"/>
<vectornator:setting key="PencilOnly" value="0"/>
<vectornator:setting key="SnapToPoints" value="0"/>
<vectornator:setting key="OutlineMode" value="0"/>
<vectornator:setting key="CMYKEnabledKey" value="0"/>
<vectornator:setting key="RulersVisible" value="1"/>
<vectornator:setting key="SnapToEdges" value="0"/>
<vectornator:setting key="GuidesVisible" value="0"/>
<vectornator:setting key="DisplayWhiteBackground" value="0"/>
<vectornator:setting key="doHistoryDisabled" value="0"/>
<vectornator:setting key="SnapToGuides" value="1"/>
<vectornator:setting key="TimeLapseWatermarkDisabled" value="0"/>
<vectornator:setting key="Units" value="Points"/>
<vectornator:setting key="DynamicGuides" value="1"/>
<vectornator:setting key="IsolateActiveLayer" value="0"/>
<vectornator:setting key="SnapToGrid" value="0"/>
</metadata>
<defs/>
<g id="Untitled" vectornator:layerName="Untitled">
<path d="M29.961+45.041L18.272+33.737C17.578+33.386+16.742+33.431+16.077+33.829C15.406+34.225+15+34.934+15+35.696L15+43L6.75+43C4.679+43+3+44.929+3+47C3+49.071+4.679+51+6.75+51L15+51L15+58.306C15+59.066+15.406+59.777+16.077+60.173C16.435+60.387+16.846+60.5+17.257+60.5C17.604+60.5+17.952+60.421+18.272+60.265L29.961+48.961C30.655+48.313+31.2+47.83+31.2+47C31.2+46.172+30.735+45.721+29.961+45.041Z" opacity="1" fill="#000000"/>
<path d="M90.039+48.959L101.728+60.263C102.422+60.614+103.258+60.569+103.923+60.171C104.594+59.775+105+59.066+105+58.304L105+51L113.25+51C115.321+51+117+49.071+117+47C117+44.929+115.321+43+113.25+43L105+43L105+35.694C105+34.934+104.594+34.223+103.923+33.827C103.565+33.613+103.154+33.5+102.743+33.5C102.396+33.5+102.048+33.579+101.728+33.735L90.039+45.038C89.345+45.687+88.8+46.17+88.8+47C88.8+47.828+89.265+48.279+90.039+48.959Z" opacity="1" fill="#000000"/>
<path d="M29.052+91.001C28.671+91.001+28.284+90.946+27.901+90.831C25.785+90.196+24.584+87.967+25.219+85.851C25.858+83.722+26.536+81.558+27.222+79.367C30.58+68.654+34.051+57.577+34.051+47C34.051+36.422+30.58+25.345+27.222+14.633C26.535+12.442+25.857+10.279+25.219+8.15C24.584+6.034+25.784+3.804+27.901+3.17C30.017+2.532+32.247+3.735+32.881+5.852C33.511+7.95+34.179+10.082+34.856+12.242C38.393+23.527+42.051+35.198+42.051+47C42.051+58.802+38.394+70.472+34.857+81.758C34.18+83.918+33.512+86.051+32.882+88.15C32.362+89.882+30.772+91.001+29.052+91.001Z" opacity="1" fill="#000000"/>
<path d="M90.948+91.001C89.227+91.001+87.638+89.882+87.119+88.149C86.489+86.049+85.82+83.916+85.143+81.754C81.606+70.47+77.95+58.801+77.95+47C77.95+35.199+81.607+23.529+85.143+12.244C85.82+10.083+86.489+7.95+87.119+5.851C87.754+3.735+89.983+2.536+92.099+3.169C94.215+3.804+95.415+6.034+94.781+8.15C94.142+10.279+93.465+12.444+92.777+14.636C89.42+25.347+85.95+36.423+85.95+47C85.95+57.576+89.421+68.652+92.777+79.363C93.464+81.555+94.142+83.72+94.781+85.85C95.416+87.966+94.216+90.196+92.099+90.83C91.716+90.946+91.328+91.001+90.948+91.001Z" opacity="1" fill="#000000"/>
<path d="M60+91C57.791+91+56+89.209+56+87L56+7C56+4.791+57.791+3+60+3C62.209+3+64+4.791+64+7L64+87C64+89.209+62.209+91+60+91Z" opacity="1" fill="#000000"/>
<path d="M41.052+91.001C40.671+91.001+40.284+90.946+39.901+90.831C37.785+90.196+36.584+87.967+37.219+85.851C37.858+83.722+38.536+81.558+39.222+79.367C42.58+68.654+46.051+57.577+46.051+47C46.051+36.422+42.58+25.345+39.222+14.633C38.535+12.442+37.857+10.279+37.219+8.15C36.584+6.034+37.784+3.804+39.901+3.17C42.017+2.532+44.247+3.735+44.881+5.852C45.511+7.95+46.179+10.082+46.856+12.242C50.393+23.527+54.051+35.198+54.051+47C54.051+58.802+50.394+70.472+46.857+81.758C46.18+83.918+45.512+86.051+44.882+88.15C44.362+89.882+42.772+91.001+41.052+91.001Z" opacity="1" fill="#000000"/>
<path d="M78.948+91.001C77.227+91.001+75.638+89.882+75.119+88.149C74.489+86.049+73.82+83.916+73.143+81.754C69.606+70.47+65.95+58.801+65.95+47C65.95+35.199+69.607+23.529+73.143+12.244C73.82+10.083+74.489+7.95+75.119+5.851C75.754+3.735+77.983+2.536+80.099+3.169C82.215+3.804+83.415+6.034+82.781+8.15C82.142+10.279+81.465+12.444+80.777+14.636C77.42+25.347+73.95+36.423+73.95+47C73.95+57.576+77.421+68.652+80.777+79.363C81.464+81.555+82.142+83.72+82.781+85.85C83.416+87.966+82.216+90.196+80.099+90.83C79.716+90.946+79.328+91.001+78.948+91.001Z" opacity="1" fill="#000000"/>
</g>
</svg>
