<?xml version="1.0" encoding="UTF-8" standalone="no"?> <!-- Created with Vectornator for iOS (http://vectornator.io/) --><!DOCTYPE svg PUBLIC "-//W3C//DTD SVG 1.1//EN" "http://www.w3.org/Graphics/SVG/1.1/DTD/svg11.dtd">
<svg style="fill-rule:evenodd;clip-rule:evenodd;stroke-linecap:round;stroke-linejoin:round;" xmlns:vectornator="http://vectornator.io" xmlns:xlink="http://www.w3.org/1999/xlink" xmlns="http://www.w3.org/2000/svg" xml:space="preserve" version="1.1" viewBox="0 0 100 53.8457">
<metadata>
<vectornator:setting key="DimensionsVisible" value="0"/>
<vectornator:setting key="PencilOnly" value="0"/>
<vectornator:setting key="SnapToPoints" value="0"/>
<vectornator:setting key="OutlineMode" value="0"/>
<vectornator:setting key="CMYKEnabledKey" value="0"/>
<vectornator:setting key="RulersVisible" value="1"/>
<vectornator:setting key="SnapToEdges" value="0"/>
<vectornator:setting key="GuidesVisible" value="0"/>
<vectornator:setting key="DisplayWhiteBackground" value="0"/>
<vectornator:setting key="doHistoryDisabled" value="0"/>
<vectornator:setting key="SnapToGuides" value="1"/>
<vectornator:setting key="TimeLapseWatermarkDisabled" value="0"/>
<vectornator:setting key="Units" value="Points"/>
<vectornator:setting key="DynamicGuides" value="1"/>
<vectornator:setting key="IsolateActiveLayer" value="0"/>
<vectornator:setting key="SnapToGrid" value="0"/>
</metadata>
<defs/>
<g id="Untitled" vectornator:layerName="Untitled">
<path d="M76.109+17.044C63.108+12.137+55.414+3.208+44.5+3.209C43.826+3.209+43.138+3.243+42.438+3.314C18.693+5.726+20.182+25.572+10.527+33.056C7.089+35.72+20.883+41.352+36.317+41.352C39.201+41.352+42.144+41.155+45.041+40.706C62.019+38.07+81.515+19.083+76.109+17.044Z" opacity="1" fill="#000000"/>
<path d="M9.089+38.115C8.497+38.315+7.781+38.56+6.884+38.847C3.234+40.017+0.898+42.064+0.894+42.927C0.886+44.704+11.629+44.546+17.355+43.328C18.665+43.05+19.411+42.798+19.762+42.556C19.061+42.379+18.368+42.195+17.693+41.997C13.134+40.67+10.565+39.291+9.089+38.115Z" opacity="1" fill="#000000"/>
<path d="M67.293+34.028C64.924+35.75+61.623+37.914+57.774+39.808C57.778+39.934+58.161+40.318+58.675+41.92C59.191+43.522+59.384+46.167+59.372+48.296C59.362+50.218+60.558+50.03+61.708+50.618C62.996+51.276+66.915+51.305+71.129+51.081C72.608+51.001+73.122+51.017+72.9+48.575C72.08+39.529+67.293+34.028+67.293+34.028Z" opacity="1" fill="#000000"/>
<path d="M21.71+43.006C21.678+43.078+21.645+43.15+21.618+43.23C20.882+45.424+20.366+50.203+23.074+50.888C25.945+51.615+29.319+51.539+32.676+51.468C33.679+51.447+34.636+50.674+34.884+49.788C35.446+47.773+35.139+45.888+33.981+44.517C29.828+44.373+25.63+43.852+21.71+43.006Z" opacity="1" fill="#000000"/>
<path d="M96.99+15.832C94.491+11.072+87.561+11.451+83.643+14.056C82.29+14.955+81.193+16.151+80.134+17.384C80.234+17.881+80.26+18.408+80.202+18.959C79.75+23.32+73.928+28.727+70.337+31.677C70.337+31.677+70.337+31.677+70.338+31.677C71.013+32.177+73.162+32.917+74.145+32.982C80.081+33.379+85.338+32.682+90.69+29.961C95.457+27.536+99.827+21.235+96.99+15.832ZM88.61+20.251C87.39+20.251+86.402+19.263+86.402+18.043C86.402+16.823+87.39+15.835+88.61+15.835C89.829+15.835+90.818+16.823+90.818+18.043C90.818+19.263+89.829+20.251+88.61+20.251Z" opacity="1" fill="#000000"/>
</g>
</svg>
